<svg xmlns="http://www.w3.org/2000/svg" height="32" width="32"><path d="M14.62 31.95c-1.79-.16-3.71-.67-5.4-1.45a17.58 17.58 0 0 1-3.17-1.97C5.38 28 4 26.63 3.47 25.95a16 16 0 1 1 11.15 6zm6.2-7.82c.17-.13.34-.38.4-.62.18-.67 2.72-12.82 2.72-13.01 0-.29-.16-.63-.36-.78-.1-.08-.21-.1-.45-.1-.27.01-.72.17-4.81 1.76l-7.86 3.03c-1.84.7-3.44 1.34-3.56 1.41-.52.3-.55.77-.07 1 .1.06 1.1.38 2.22.73l2.04.63 4.6-2.9 4.72-2.95c.12-.07.4-.08.43-.02.01.03 0 .08-.03.13-.04.04-1.74 1.6-3.78 3.44l-3.72 3.36-.13 1.86c-.18 2.42-.18 2.23 0 2.23a.8.8 0 0 0 .31-.08c.1-.05.64-.55 1.23-1.11l1.07-1.03.94.69 2.03 1.5c.68.5 1.18.83 1.34.88.29.1.53.09.72-.05z" fill="#444"/></svg>